<svg width="35" height="24" viewBox="0 0 35 24" fill="none" xmlns="http://www.w3.org/2000/svg">
<path fill-rule="evenodd" clip-rule="evenodd" d="M21 6.5C20.7239 6.5 20.5 6.72386 20.5 7C20.5 7.27614 20.7239 7.5 21 7.5V18.5H20.5C20.2239 18.5 20 18.7239 20 19C20 19.2761 20.2239 19.5 20.5 19.5H29V7.5C29.2761 7.5 29.5 7.27614 29.5 7C29.5 6.72386 29.2761 6.5 29 6.5H21ZM23.5 18V16.5C23.5 16.2239 23.7239 16 24 16H26C26.2761 16 26.5 16.2239 26.5 16.5V18C26.5 18.2761 26.2761 18.5 26 18.5H24C23.7239 18.5 23.5 18.2761 23.5 18ZM23 9.5C23 9.22386 23.2239 9 23.5 9H24C24.2761 9 24.5 9.22386 24.5 9.5C24.5 9.77614 24.2761 10 24 10H23.5C23.2239 10 23 9.77614 23 9.5ZM23.5 11C23.2239 11 23 11.2239 23 11.5C23 11.7761 23.2239 12 23.5 12H24C24.2761 12 24.5 11.7761 24.5 11.5C24.5 11.2239 24.2761 11 24 11H23.5ZM23 13.5C23 13.2239 23.2239 13 23.5 13H24C24.2761 13 24.5 13.2239 24.5 13.5C24.5 13.7761 24.2761 14 24 14H23.5C23.2239 14 23 13.7761 23 13.5ZM26 9C25.7239 9 25.5 9.22386 25.5 9.5C25.5 9.77614 25.7239 10 26 10H26.5C26.7761 10 27 9.77614 27 9.5C27 9.22386 26.7761 9 26.5 9H26ZM25.5 11.5C25.5 11.2239 25.7239 11 26 11H26.5C26.7761 11 27 11.2239 27 11.5C27 11.7761 26.7761 12 26.5 12H26C25.7239 12 25.5 11.7761 25.5 11.5ZM26 13C25.7239 13 25.5 13.2239 25.5 13.5C25.5 13.7761 25.7239 14 26 14H26.5C26.7761 14 27 13.7761 27 13.5C27 13.2239 26.7761 13 26.5 13H26Z" fill="#0F172A"/>
<path fill-rule="evenodd" clip-rule="evenodd" d="M30 9.5V19.5H33.5C33.7761 19.5 34 19.2761 34 19C34 18.7239 33.7761 18.5 33.5 18.5H33V10.5C33.2761 10.5 33.5 10.2761 33.5 10C33.5 9.72386 33.2761 9.5 33 9.5H30ZM31 12.5C31 12.2239 31.2239 12 31.5 12H31.505C31.7811 12 32.005 12.2239 32.005 12.5V12.505C32.005 12.7811 31.7811 13.005 31.505 13.005H31.5C31.2239 13.005 31 12.7811 31 12.505V12.5ZM31.5 14C31.2239 14 31 14.2239 31 14.5V14.505C31 14.7811 31.2239 15.005 31.5 15.005H31.505C31.7811 15.005 32.005 14.7811 32.005 14.505V14.5C32.005 14.2239 31.7811 14 31.505 14H31.5ZM31 16.5C31 16.2239 31.2239 16 31.5 16H31.505C31.7811 16 32.005 16.2239 32.005 16.5V16.505C32.005 16.7811 31.7811 17.005 31.505 17.005H31.5C31.2239 17.005 31 16.7811 31 16.505V16.5Z" fill="#0F172A"/>
<path d="M8.625 11.5C12.8362 11.5 16.25 14.9138 16.25 19.125V19.1279L16.249 19.2549C16.2418 19.6857 16.0127 20.0834 15.6436 20.3057C13.5927 21.5403 11.1898 22.25 8.625 22.25C6.0602 22.25 3.65726 21.5403 1.60645 20.3057C1.23728 20.0834 1.00822 19.6857 1.00098 19.2549C1.00025 19.2117 1 19.1684 1 19.125C1 14.9138 4.41383 11.5 8.625 11.5ZM17.625 13C20.5935 13.0001 23 15.4065 23 18.375C23 18.4501 22.9982 18.5252 22.9951 18.5996C22.9761 19.0574 22.7082 19.4681 22.2969 19.6699C20.8855 20.3618 19.2986 20.75 17.625 20.75C17.4107 20.75 17.1976 20.744 16.9863 20.7314C16.8191 20.7215 16.6672 20.6283 16.583 20.4834C16.4988 20.3384 16.493 20.16 16.5674 20.0098C16.6805 19.781 16.7446 19.527 16.749 19.2637C16.7498 19.2187 16.75 19.1732 16.75 19.1279V19.125C16.75 17.3028 16.1501 15.6216 15.1377 14.2666C15.0483 14.1466 15.0178 13.9929 15.0537 13.8477C15.0898 13.7022 15.1888 13.5799 15.3242 13.5156C16.0222 13.1847 16.8029 13 17.625 13ZM17.625 4.75C19.7651 4.75 21.5 6.4849 21.5 8.625C21.5 10.7651 19.7651 12.5 17.625 12.5C15.4849 12.5 13.75 10.7651 13.75 8.625C13.75 6.4849 15.4849 4.75 17.625 4.75ZM8.625 1.75C11.1793 1.75 13.25 3.82068 13.25 6.375C13.25 8.92932 11.1793 11 8.625 11C6.07068 11 4 8.92932 4 6.375C4 3.82068 6.07068 1.75 8.625 1.75Z" fill="#0F172A" stroke="white" stroke-linejoin="round"/>
</svg>
