<svg width="18" height="21" viewBox="0 0 18 21" fill="none" xmlns="http://www.w3.org/2000/svg">
<path fill-rule="evenodd" clip-rule="evenodd" d="M4.50183 4.5H8.24766L8.25 4.5H11.6299C13.4915 4.50268 14.9999 6.01269 14.9999 7.875V17.25C16.6567 17.25 17.9999 15.9068 17.9999 14.25V4.60821C17.9999 3.10282 16.8751 1.7966 15.3358 1.66884C15.1121 1.65027 14.8879 1.63321 14.6632 1.61767C14.1633 0.656475 13.1583 0 12 0H10.5C9.34168 0 8.33668 0.656467 7.83676 1.61765C7.61207 1.63319 7.38779 1.65026 7.16394 1.66884C5.66165 1.79353 4.55421 3.04069 4.50183 4.5ZM10.5 1.5C9.67157 1.5 9 2.17157 9 3H13.5C13.5 2.17157 12.8284 1.5 12 1.5H10.5Z" fill="#0F172A"/>
<path fill-rule="evenodd" clip-rule="evenodd" d="M0 7.875C0 6.83947 0.839466 6 1.875 6H11.625C12.6605 6 13.5 6.83947 13.5 7.875V19.125C13.5 20.1605 12.6605 21 11.625 21H1.875C0.839466 21 0 20.1605 0 19.125V7.875ZM3 10.5C3 10.0858 3.33579 9.75 3.75 9.75H3.7575C4.17171 9.75 4.5075 10.0858 4.5075 10.5V10.5075C4.5075 10.9217 4.17171 11.2575 3.7575 11.2575H3.75C3.33579 11.2575 3 10.9217 3 10.5075V10.5ZM5.25 10.5C5.25 10.0858 5.58579 9.75 6 9.75H9.75C10.1642 9.75 10.5 10.0858 10.5 10.5C10.5 10.9142 10.1642 11.25 9.75 11.25H6C5.58579 11.25 5.25 10.9142 5.25 10.5ZM3 13.5C3 13.0858 3.33579 12.75 3.75 12.75H3.7575C4.17171 12.75 4.5075 13.0858 4.5075 13.5V13.5075C4.5075 13.9217 4.17171 14.2575 3.7575 14.2575H3.75C3.33579 14.2575 3 13.9217 3 13.5075V13.5ZM5.25 13.5C5.25 13.0858 5.58579 12.75 6 12.75H9.75C10.1642 12.75 10.5 13.0858 10.5 13.5C10.5 13.9142 10.1642 14.25 9.75 14.25H6C5.58579 14.25 5.25 13.9142 5.25 13.5ZM3 16.5C3 16.0858 3.33579 15.75 3.75 15.75H3.7575C4.17171 15.75 4.5075 16.0858 4.5075 16.5V16.5075C4.5075 16.9217 4.17171 17.2575 3.7575 17.2575H3.75C3.33579 17.2575 3 16.9217 3 16.5075V16.5ZM5.25 16.5C5.25 16.0858 5.58579 15.75 6 15.75H9.75C10.1642 15.75 10.5 16.0858 10.5 16.5C10.5 16.9142 10.1642 17.25 9.75 17.25H6C5.58579 17.25 5.25 16.9142 5.25 16.5Z" fill="#0F172A"/>
</svg>
