<svg width="40" height="38" viewBox="0 0 40 38" fill="none" xmlns="http://www.w3.org/2000/svg">
<path d="M4.25 29.75L11.612 22.388M11.612 22.388C9.68924 20.4653 8.5 17.809 8.5 14.875C8.5 9.00697 13.257 4.25 19.125 4.25C24.993 4.25 29.75 9.00697 29.75 14.875C29.75 20.743 24.993 25.5 19.125 25.5C16.191 25.5 13.5347 24.3108 11.612 22.388Z" stroke="#0F172A" stroke-width="1.5" stroke-linecap="round" stroke-linejoin="round"/>
<path d="M37.25 31.9336C37.2499 33.7439 35.9422 35.3487 34.082 35.5957C31.7644 35.9034 29.4004 36.0625 27 36.0625C24.5996 36.0625 22.2356 35.9034 19.918 35.5957C18.0578 35.3487 16.7501 33.7439 16.75 31.9336V28.0596L17.4902 28.4658C17.7055 28.5839 17.9363 28.6853 18.1807 28.7666C20.9554 29.6891 23.9215 30.1875 27 30.1875C30.0785 30.1875 33.0446 29.6891 35.8193 28.7666C36.0637 28.6853 36.2945 28.5839 36.5098 28.4658L37.25 28.0596V31.9336ZM28.625 13.9375C30.6183 13.9375 32.2476 15.4928 32.3672 17.4561C33.2357 17.5429 34.0982 17.6493 34.9541 17.7773C36.7867 18.0515 38.0625 19.6434 38.0625 21.4316V24.7168C38.0625 26.2242 37.1482 27.6655 35.623 28.1729C32.9109 29.0745 30.0109 29.5625 27 29.5625C23.9891 29.5625 21.0891 29.0746 18.377 28.1729C16.8518 27.6655 15.9375 26.2242 15.9375 24.7168V21.4316L15.9521 21.0986C16.0989 19.4492 17.3278 18.0344 19.0459 17.7773C19.9014 17.6493 20.7637 17.5429 21.6318 17.4561C21.7514 15.4928 23.3817 13.9375 25.375 13.9375H28.625ZM27 25.5C26.8274 25.5 26.6875 25.6399 26.6875 25.8125C26.6875 25.9851 26.8274 26.125 27 26.125C27.1726 26.125 27.3125 25.9851 27.3125 25.8125C27.3125 25.6399 27.1726 25.5 27 25.5ZM25.375 16.5625C24.9077 16.5625 24.5069 16.8474 24.3369 17.2529C25.2192 17.2095 26.1071 17.1875 27 17.1875C27.8926 17.1875 28.7801 17.2095 29.6621 17.2529C29.492 16.8475 29.0921 16.5625 28.625 16.5625H25.375Z" fill="#0F172A" stroke="white"/>
</svg>
