<svg width="46" height="46" viewBox="0 0 46 46" fill="none" xmlns="http://www.w3.org/2000/svg">
<path fill-rule="evenodd" clip-rule="evenodd" d="M29.4998 28C29.4998 25.5147 31.5146 23.5 33.9998 23.5C36.4851 23.5 38.4998 25.5147 38.4998 28C38.4998 30.4853 36.4851 32.5 33.9998 32.5C31.5146 32.5 29.4998 30.4853 29.4998 28Z" fill="#0F172A"/>
<path fill-rule="evenodd" clip-rule="evenodd" d="M25.7511 42.1053C25.8284 37.6156 29.4918 34 33.9998 34C38.508 34 42.1714 37.6157 42.2486 42.1056C42.2537 42.4034 42.0822 42.676 41.8115 42.8002C39.4326 43.8918 36.7864 44.5 34.0002 44.5C31.2137 44.5 28.5673 43.8917 26.1882 42.7999C25.9175 42.6757 25.746 42.4031 25.7511 42.1053Z" fill="#0F172A"/>
<path fill-rule="evenodd" clip-rule="evenodd" d="M7.49984 10C7.49984 7.51472 9.51456 5.5 11.9998 5.5C14.4851 5.5 16.4998 7.51472 16.4998 10C16.4998 12.4853 14.4851 14.5 11.9998 14.5C9.51456 14.5 7.49984 12.4853 7.49984 10Z" fill="#0F172A"/>
<path fill-rule="evenodd" clip-rule="evenodd" d="M3.75109 24.1053C3.82843 19.6156 7.49183 16 11.9998 16C16.508 16 20.1714 19.6157 20.2486 24.1056C20.2537 24.4034 20.0822 24.676 19.8115 24.8002C17.4326 25.8918 14.7864 26.5 12.0002 26.5C9.2137 26.5 6.56728 25.8917 4.18816 24.7999C3.91749 24.6757 3.74596 24.4031 3.75109 24.1053Z" fill="#0F172A"/>
<path d="M12.8838 22.1162C12.3956 21.6281 11.6044 21.6281 11.1162 22.1162L5.11621 28.1162C4.62806 28.6044 4.62805 29.3956 5.11621 29.8838C5.60437 30.3719 6.39563 30.3719 6.88379 29.8838L10.75 26.0176V35L10.7598 35.373C10.9539 39.2037 14.1211 42.25 18 42.25C22.0041 42.25 25.25 39.0041 25.25 35V32C25.25 31.3096 24.6904 30.75 24 30.75C23.3096 30.75 22.75 31.3096 22.75 32V35C22.75 37.6234 20.6234 39.75 18 39.75C15.3766 39.75 13.25 37.6234 13.25 35V26.0176L17.1162 29.8838C17.6044 30.3719 18.3956 30.3719 18.8838 29.8838C19.3719 29.3956 19.3719 28.6044 18.8838 28.1162L12.8838 22.1162Z" fill="#0F172A" stroke="white" stroke-linecap="round"/>
<path fill-rule="evenodd" clip-rule="evenodd" d="M24.0625 11C24.0625 6.06396 28.064 2.0625 33 2.0625C37.936 2.0625 41.9375 6.06396 41.9375 11C41.9375 15.936 37.936 19.9375 33 19.9375C28.064 19.9375 24.0625 15.936 24.0625 11ZM36.3094 9.3371C36.5301 9.02813 36.4586 8.59875 36.1496 8.37806C35.8406 8.15736 35.4113 8.22893 35.1906 8.5379L32.2248 12.69L30.7361 11.2014C30.4677 10.9329 30.0323 10.9329 29.7639 11.2014C29.4954 11.4698 29.4954 11.9052 29.7639 12.1736L31.8264 14.2361C31.9693 14.379 32.1678 14.4518 32.3692 14.4352C32.5706 14.4185 32.7545 14.3141 32.8719 14.1496L36.3094 9.3371Z" fill="#0F172A"/>
</svg>
